<svg width="18" height="18" viewBox="0 0 18 18" fill="none" xmlns="http://www.w3.org/2000/svg">
<path d="M17.5497 16.4385L12.8435 11.7321C13.8615 10.4663 14.4155 8.9046 14.4155 7.25687C14.4155 5.34471 13.671 3.54708 12.3187 2.19483C10.9667 0.842979 9.16923 0.0983887 7.25707 0.0983887C5.3449 0.0983887 3.54728 0.842979 2.19503 2.19503C0.842979 3.54708 0.0983887 5.3449 0.0983887 7.25707C0.0983887 9.16923 0.842979 10.9669 2.19503 12.3189C3.54708 13.6712 5.3449 14.4157 7.25707 14.4157C8.90479 14.4157 10.4665 13.8617 11.7323 12.8437L16.4385 17.5499C16.5918 17.7031 16.7931 17.78 16.9941 17.78C17.1951 17.78 17.3965 17.7031 17.5497 17.5497C17.8568 17.243 17.8568 16.7452 17.5497 16.4385ZM3.30641 11.2075C2.25122 10.1523 1.67008 8.74939 1.67008 7.25707C1.67008 5.76474 2.25122 4.36181 3.30641 3.30661C4.36161 2.25141 5.76474 1.67008 7.25707 1.67008C8.74939 1.67008 10.1523 2.25122 11.2075 3.30641C12.2627 4.36161 12.8439 5.76474 12.8439 7.25687C12.8439 8.74919 12.2627 10.1521 11.2075 11.2073C10.1523 12.2625 8.74939 12.8437 7.25707 12.8437C5.76474 12.8439 4.36161 12.2627 3.30641 11.2075Z" fill="#514B4B"/>
</svg>
