<svg width="18" height="18" viewBox="0 0 18 18" fill="none" xmlns="http://www.w3.org/2000/svg">
<g clip-path="url(#clip0_88_37)">
<path d="M8.93907 17.7799C5.85717 17.7799 3.04561 16.0858 1.60142 13.3585L1.45544 13.0827L1.60142 12.807C2.42302 11.2552 3.74501 9.97877 5.32339 9.21296C5.88979 8.93851 6.54931 8.94244 7.13378 9.22318C7.6994 9.49508 8.30686 9.633 8.93887 9.633C9.57109 9.633 10.1785 9.49508 10.744 9.22318C11.3284 8.94224 11.9882 8.93851 12.5544 9.21296C14.1329 9.97877 15.4549 11.2554 16.2763 12.807C16.4286 13.0947 16.319 13.4512 16.0311 13.6037C15.7429 13.7565 15.3868 13.6463 15.2345 13.3585C14.5292 12.0267 13.3948 10.931 12.0396 10.2737C11.7992 10.1568 11.5129 10.1617 11.2546 10.2858C10.5286 10.6346 9.74947 10.8116 8.93907 10.8116C8.12866 10.8116 7.34969 10.6346 6.62318 10.2855C6.36483 10.1611 6.07839 10.1566 5.83792 10.2733C4.57762 10.8847 3.50808 11.8752 2.79708 13.0827C4.07546 15.261 6.40059 16.6011 8.93907 16.6011C9.44594 16.6011 9.95222 16.5477 10.4436 16.442C10.7603 16.373 11.0752 16.576 11.1436 16.8944C11.2121 17.2125 11.0094 17.5261 10.6911 17.5944C10.1186 17.7176 9.52924 17.7799 8.93907 17.7799Z" fill="#514B4B"/>
<path d="M8.93906 8.69301C6.56953 8.69301 4.64185 6.76513 4.64185 4.3956C4.64185 2.02607 6.56953 0.0983887 8.93906 0.0983887C11.3086 0.0983887 13.2363 2.02607 13.2363 4.3956C13.2363 6.76513 11.3086 8.69301 8.93906 8.69301ZM8.93906 1.27716C7.21962 1.27716 5.82062 2.67616 5.82062 4.3956C5.82062 6.11523 7.21962 7.51424 8.93906 7.51424C10.6585 7.51424 12.0575 6.11523 12.0575 4.3956C12.0575 2.67616 10.6585 1.27716 8.93906 1.27716Z" fill="#514B4B"/>
<path d="M16.3001 15.9135C16.3078 15.8953 16.3119 15.876 16.3176 15.8572C16.3229 15.8393 16.3298 15.8222 16.3335 15.8037C16.341 15.7662 16.3449 15.7281 16.3449 15.69C16.3449 15.6894 16.3451 15.689 16.3451 15.6886C16.3451 15.6499 16.341 15.6112 16.3335 15.5731C16.33 15.5556 16.3235 15.5395 16.3186 15.5226C16.3127 15.5027 16.3082 15.4825 16.3001 15.4632C16.2916 15.4428 16.2801 15.4244 16.2694 15.4051C16.2616 15.3908 16.2553 15.3758 16.2461 15.3621C16.2243 15.3295 16.1995 15.299 16.1718 15.2713L14.6704 13.7699C14.4402 13.5397 14.0673 13.5397 13.8371 13.7699C13.6068 14 13.6068 14.3733 13.8371 14.6033L14.3329 15.0992H12.8388C12.1667 15.0992 11.6202 14.5526 11.6202 13.8806V13.0533C11.6202 12.7277 11.3563 12.4639 11.0308 12.4639C10.7053 12.4639 10.4414 12.7277 10.4414 13.0533V13.8806C10.4414 15.2025 11.517 16.278 12.8388 16.278H14.3331L13.8371 16.774C13.6068 17.0043 13.6068 17.3774 13.8371 17.6074C13.9522 17.7224 14.1029 17.7799 14.2537 17.7799C14.4046 17.7799 14.5555 17.7224 14.6704 17.6072L16.1718 16.1057C16.1995 16.078 16.2245 16.0475 16.2463 16.0147C16.2549 16.0018 16.2606 15.9878 16.2683 15.9744C16.2793 15.9544 16.2913 15.935 16.3001 15.9135Z" fill="#514B4B"/>
</g>
<defs>
<clipPath id="clip0_88_37">
<rect width="17.8983" height="17.8983" fill="white"/>
</clipPath>
</defs>
</svg>
